v -14.109312 0.080903 2.998156
v -14.109312 0.000000 2.998156
v -14.109312 0.000000 0.089017
v -14.109312 0.080903 0.089017
v 0.835596 -0.095793 2.998156
v -5.627376 -0.095793 2.998156
v -5.627376 0.025222 2.998156
v 0.835596 0.025222 2.998156
v 0.835596 0.025222 3.220953
v -5.627376 0.025222 3.220953
v -5.627376 0.025222 3.443751
v 0.835596 0.025222 3.443751
v 0.835596 0.025222 3.146687
v -5.627376 0.025222 3.146687
v 0.835596 0.025222 3.072422
v -5.627376 0.025222 3.072422
v 0.835596 0.025222 2.998156
v -5.627376 0.025222 2.998156
v -5.627376 0.025222 3.072422
v 0.835596 0.025222 3.072422
vn 1.000000 0.000000 0.000000
vn 1.000000 0.000000 0.000000
vn 1.000000 0.000000 0.000000
vn 1.000000 0.000000 0.000000
vn 0.000000 0.000000 -1.000000
vn 0.000000 0.000000 -1.000000
vn 0.000000 0.000000 -1.000000
vn 0.000000 0.000000 -1.000000
vn 0.000000 1.000000 0.000000
vn 0.000000 1.000000 0.000000
vn 0.000000 1.000000 0.000000
vn 0.000000 1.000000 0.000000
vn 0.000000 1.000000 0.000000
vn 0.000000 1.000000 0.000000
vn 0.000000 1.000000 0.000000
vn 0.000000 1.000000 0.000000
vn 0.000000 1.000000 0.000000
vn 0.000000 1.000000 0.000000
vn 0.000000 1.000000 0.000000
vn 0.000000 1.000000 0.000000
vt -1.112600 0.816100
vt -1.112600 0.745200
vt 0.656600 0.745200
vt 0.656600 0.816100
vt 1.019900 0.661200
vt -3.656200 0.661200
vt -3.656200 0.816100
vt 1.019900 0.816100
vt 1.019900 1.428200
vt -3.656200 1.428200
vt -3.656200 1.232900
vt 1.019900 1.232900
vt 1.019900 1.493300
vt -3.656200 1.493300
vt 1.019900 1.558400
vt -3.656200 1.558400
vt 1.019900 -0.129900
vt -3.656200 -0.129900
vt -3.656200 -0.195000
vt 1.019900 -0.195000
f 1/1/1 2/2/2 3/3/3
f 1/1/1 3/3/3 4/4/4
f 5/5/5 6/6/6 7/7/7
f 5/5/5 7/7/7 8/8/8
f 9/9/9 10/10/10 11/11/11
f 9/9/9 11/11/11 12/12/12
f 13/13/13 14/14/14 10/10/10
f 13/13/13 10/10/10 9/9/9
f 15/15/15 16/16/16 14/14/14
f 15/15/15 14/14/14 13/13/13
f 17/17/17 18/18/18 19/19/19
f 17/17/17 19/19/19 20/20/20
