v -8.801638 5.620554 0.097700
v -8.806683 5.617554 0.094700
v -8.804161 5.617554 0.091700
v -8.801638 5.074708 2.998156
v -8.801638 -0.020155 2.998156
v -8.806683 -0.020182 2.998156
v -8.806683 5.074708 2.998156
v 2.608303 5.620554 -2.998156
v 3.595206 11.277534 -2.998156
v 3.590314 11.277534 -2.998156
v 2.606250 5.623554 -2.998156
v -6.964387 5.620554 2.995156
v -6.284004 5.620554 2.995156
v -6.284004 5.617554 2.998156
v -6.964387 5.617554 2.998156
v -8.801638 5.074708 2.998156
v -6.284004 5.074708 2.998156
v -6.284004 -0.020155 2.998156
v -8.801638 -0.020155 2.998156
v -6.288679 5.620554 -2.998156
v -6.288679 5.620554 0.024097
v -8.801638 5.620554 -0.596984
v -8.804161 5.620554 -2.995156
v -8.804161 5.620554 -2.995156
v -8.804161 5.620554 -2.995156
v -8.804161 5.620554 -2.995156
v -6.964022 5.620554 -2.998156
v -6.964387 5.617554 2.998156
v -6.284004 5.617554 2.998156
v -6.284004 5.080707 2.998156
v -8.801638 5.080707 2.998156
v -8.801638 5.617554 2.998156
v -6.959781 11.280535 0.077782
v -8.801638 11.280535 0.077782
v -8.801638 11.280535 -2.998156
v -6.959781 11.280535 -2.998156
v -6.288679 5.620554 0.024097
v -6.288679 5.620554 -2.998156
v -6.285969 5.624068 -2.998156
v -6.285969 5.622204 -0.006691
v -8.801638 5.620554 -0.596984
v -6.288679 5.620554 0.024097
v -6.288318 5.620554 0.030314
v -8.806683 5.620554 -0.592102
v -8.801638 5.080707 2.998156
v -6.284004 5.080707 2.998156
v -6.284004 5.074708 2.998156
v -8.801638 5.074708 2.998156
v -8.801638 5.620554 0.097700
v -6.284004 5.620554 0.089152
v -6.284004 5.620554 2.995156
v -6.964387 5.620554 2.995156
v -8.804161 5.622675 2.996034
v -8.801638 5.617554 2.998156
v -8.806683 5.617554 2.998156
v -8.804161 5.622675 2.996034
v -6.964387 5.617554 2.998156
v -8.801638 5.617554 2.998156
v -8.804161 5.622675 2.996034
v -6.964387 5.620554 2.995156
v -8.801638 5.080707 2.998156
v -8.801638 5.074708 2.998156
v -8.806683 5.074708 2.998156
v -8.806683 5.080707 2.998156
v -6.284004 5.080707 2.998156
v -6.278961 5.080707 2.998156
v -6.278961 5.074708 2.998156
v -6.284004 5.074708 2.998156
v -6.284004 5.080707 2.998156
v -6.284004 5.617554 2.998156
v -6.278961 5.617554 2.998156
v -6.278961 5.080707 2.998156
v -6.959781 11.280535 0.077782
v -6.959781 11.280535 -2.998156
v -6.954737 11.280535 -2.995156
v -6.954737 11.280535 0.077782
v -6.284004 5.620554 2.995156
v -6.278961 5.620554 2.995156
v -6.278961 5.617554 2.998156
v -6.284004 5.617554 2.998156
v -8.801638 11.280535 -2.998156
v -8.801638 11.280535 0.077782
v -8.806683 11.280535 0.077782
v -8.806683 11.280535 -2.995156
v -6.284004 5.620554 2.995156
v -6.284004 5.620554 2.995156
v -6.284004 5.620554 2.995156
v -6.284004 5.620554 2.995156
v -6.278961 5.620554 2.995156
v -6.278961 5.620554 2.995156
v -6.278961 5.620554 2.995156
v -6.278961 5.620554 2.995156
v -6.278961 5.617554 2.998156
v -6.278961 5.617554 2.998156
v -6.278961 5.617554 2.998156
v -6.278961 5.617554 2.998156
v -6.284004 5.617554 2.998156
v -6.284004 5.617554 2.998156
v -6.284004 5.617554 2.998156
v -6.284004 5.617554 2.998156
v 2.608303 5.620554 -2.998156
v 2.608303 5.620554 -2.998156
v 2.608303 5.620554 -2.998156
v 2.608303 5.620554 -2.998156
v -8.801638 5.617554 2.998156
v -8.801638 5.617554 2.998156
v -8.801638 5.617554 2.998156
v -8.801638 5.617554 2.998156
v -8.806683 5.617554 2.998156
v -8.806683 5.617554 2.998156
v -8.806683 5.617554 2.998156
v -8.806683 5.617554 2.998156
v -8.804161 5.622675 2.996034
v -8.804161 5.622675 2.996034
v -8.804161 5.622675 2.996034
v -8.804161 5.622675 2.996034
v -8.801638 5.620554 -0.596984
v -8.801638 5.620554 -0.596984
v -8.801638 5.620554 -0.596984
v -8.806683 5.617554 0.094700
v -8.806683 5.617554 0.094700
v -8.806683 5.617554 0.094700
v -8.806683 5.617554 0.094700
v -8.801638 5.080707 2.998156
v -8.801638 5.080707 2.998156
v -8.801638 5.080707 2.998156
v -8.801638 5.080707 2.998156
v -8.801638 5.074708 2.998156
v -8.801638 5.074708 2.998156
v -8.801638 5.074708 2.998156
v -8.801638 5.074708 2.998156
v -8.806683 5.074708 2.998156
v -8.806683 5.074708 2.998156
v -8.806683 5.074708 2.998156
v -8.806683 5.074708 2.998156
v -6.284004 5.080707 2.998156
v -6.284004 5.080707 2.998156
v -6.284004 5.080707 2.998156
v -6.284004 5.080707 2.998156
v -6.278961 5.080707 2.998156
v -6.278961 5.080707 2.998156
v -6.278961 5.080707 2.998156
v -6.278961 5.080707 2.998156
v -6.278961 5.074708 2.998156
v -6.278961 5.074708 2.998156
v -6.278961 5.074708 2.998156
v -6.278961 5.074708 2.998156
v -6.284004 5.074708 2.998156
v -6.284004 5.074708 2.998156
v -6.284004 5.074708 2.998156
v -6.284004 5.074708 2.998156
v -8.801638 11.280535 -2.998156
v -8.801638 11.280535 -2.998156
v -8.801638 11.280535 -2.998156
v -6.964387 5.620554 2.995156
v -6.964387 5.620554 2.995156
v -6.964387 5.620554 2.995156
v -6.964387 5.617554 2.998156
v -6.964387 5.617554 2.998156
v -6.964387 5.617554 2.998156
v -6.284004 5.617554 2.998156
v -6.284004 5.617554 2.998156
v -6.278961 5.617554 2.998156
v -6.278961 5.617554 2.998156
v -6.288318 5.620554 0.030314
v -6.288679 5.620554 0.024097
v -6.288679 5.620554 0.024097
v -6.288318 5.620554 0.030314
v -6.288679 5.620554 0.024097
v -6.285969 5.622204 -0.006691
v -6.285969 5.622204 -0.006691
v 2.606250 5.623554 -2.998156
v 2.606250 5.623554 -2.998156
v -8.804161 5.620554 -2.995156
v -8.806683 5.620554 -2.995156
v -8.806683 5.620554 -2.995156
v -8.804161 5.620554 -2.995156
v -8.801638 5.074708 2.998156
v -8.806683 5.074708 2.998156
v -8.806683 5.074708 2.998156
v -8.801638 5.074708 2.998156
v -6.284004 5.074708 2.998156
v -6.284004 5.074708 2.998156
v 3.590314 11.277534 -2.998156
v 3.595206 11.277534 -2.998156
v 3.595206 11.277534 -2.998156
v 3.590314 11.277534 -2.998156
v -6.284004 5.620554 0.089152
v -6.284004 5.620554 0.089152
v -6.288679 5.620554 0.024097
v -6.288679 5.620554 -2.998156
v -6.288679 5.620554 -2.998156
v -6.964387 5.617554 2.998156
v 7.161313 5.620554 -2.998156
v 7.160305 5.080707 -2.998156
v 7.160305 5.080707 -2.998156
v 7.161313 5.620554 -2.998156
v -8.804161 5.620554 -2.995156
v -8.801638 5.620554 -0.596984
v -8.801638 5.620554 -0.596984
v -8.801638 5.074708 2.998156
v -8.801638 -0.020155 2.998156
v -8.801638 -0.020155 2.998156
v -6.284004 -0.020155 2.998156
v -6.284004 -0.020155 2.998156
v -8.801638 5.074708 2.998156
v 3.595206 11.277534 -2.998156
v -8.806683 11.280535 -2.995156
v -8.806683 11.280535 -2.995156
v -6.954737 11.280535 -2.995156
v -6.959781 11.280535 -2.998156
v -6.959781 11.280535 -2.998156
v -6.954737 11.280535 -2.995156
v -6.959781 11.280535 0.077782
v -6.959781 11.280535 -2.998156
v -6.959781 11.280535 0.077782
v -8.801638 11.280535 0.077782
v -8.801638 11.280535 0.077782
vn 0.352000 -0.888000 0.295800
vn 0.352000 -0.888000 0.295800
vn 0.352000 -0.888000 0.295800
vn 0.000000 0.000000 -1.000000
vn 0.000000 0.000000 -1.000000
vn 0.000000 0.000000 -1.000000
vn 0.000000 0.000000 -1.000000
vn 0.000100 0.000000 1.000000
vn 0.000100 0.000000 1.000000
vn 0.000100 0.000000 1.000000
vn 0.000100 0.000000 1.000000
vn 0.000000 -0.707200 -0.707100
vn 0.000000 -0.707200 -0.707100
vn 0.000000 -0.707200 -0.707100
vn 0.000000 -0.707200 -0.707100
vn 0.000000 0.000000 -1.000000
vn 0.000000 0.000000 -1.000000
vn 0.000000 0.000000 -1.000000
vn 0.000000 0.000000 -1.000000
vn 0.000000 -1.000000 -0.000000
vn 0.000000 -1.000000 -0.000000
vn 0.000000 -1.000000 -0.000000
vn 0.000000 -1.000000 -0.000000
vn 0.000000 -1.000000 -0.000000
vn 0.000000 -1.000000 -0.000000
vn 0.000000 -1.000000 -0.000000
vn 0.000000 -1.000000 -0.000000
vn 0.000000 0.000000 -1.000000
vn 0.000000 0.000000 -1.000000
vn 0.000000 0.000000 -1.000000
vn 0.000000 0.000000 -1.000000
vn 0.000000 0.000000 -1.000000
vn 0.000000 -1.000000 -0.000000
vn 0.000000 -1.000000 -0.000000
vn 0.000000 -1.000000 -0.000000
vn 0.000000 -1.000000 -0.000000
vn 0.689200 -0.724600 -0.000200
vn 0.689200 -0.724600 -0.000200
vn 0.689200 -0.724600 -0.000200
vn 0.689200 -0.724600 -0.000200
vn 0.000000 -1.000000 -0.000000
vn 0.000000 -1.000000 -0.000000
vn 0.000000 -1.000000 -0.000000
vn 0.000000 -1.000000 -0.000000
vn 0.000000 0.000000 -1.000000
vn 0.000000 0.000000 -1.000000
vn 0.000000 0.000000 -1.000000
vn 0.000000 0.000000 -1.000000
vn -0.000400 -1.000000 0.000300
vn -0.000400 -1.000000 0.000300
vn -0.000400 -1.000000 0.000300
vn -0.000400 -1.000000 0.000300
vn -0.000400 -1.000000 0.000300
vn 0.000000 -0.382600 -0.923900
vn 0.000000 -0.382600 -0.923900
vn 0.000000 -0.382600 -0.923900
vn -0.000500 -0.533500 -0.845800
vn -0.000500 -0.533500 -0.845800
vn -0.000500 -0.533500 -0.845800
vn -0.000500 -0.533500 -0.845800
vn 0.000000 0.000000 -1.000000
vn 0.000000 0.000000 -1.000000
vn 0.000000 0.000000 -1.000000
vn 0.000000 0.000000 -1.000000
vn 0.000000 0.000000 -1.000000
vn 0.000000 0.000000 -1.000000
vn 0.000000 0.000000 -1.000000
vn 0.000000 0.000000 -1.000000
vn 0.000000 0.000000 -1.000000
vn 0.000000 0.000000 -1.000000
vn 0.000000 0.000000 -1.000000
vn 0.000000 0.000000 -1.000000
vn 0.000000 -1.000000 -0.000000
vn 0.000000 -1.000000 -0.000000
vn 0.000000 -1.000000 -0.000000
vn 0.000000 -1.000000 -0.000000
vn 0.000000 -0.707100 -0.707100
vn 0.000000 -0.707100 -0.707100
vn 0.000000 -0.707100 -0.707100
vn 0.000000 -0.707100 -0.707100
vn 0.000000 -1.000000 -0.000000
vn 0.000000 -1.000000 -0.000000
vn 0.000000 -1.000000 -0.000000
vn 0.000000 -1.000000 -0.000000
vn 0.000000 0.000000 1.000000
vn 0.000000 0.000000 1.000000
vn 0.000000 0.000000 1.000000
vn 0.000000 0.000000 1.000000
vn 0.000000 0.000000 1.000000
vn 0.000000 0.000000 1.000000
vn 0.000000 0.000000 1.000000
vn 0.000000 0.000000 1.000000
vn 0.000000 0.000000 1.000000
vn 0.000000 0.000000 1.000000
vn 0.000000 0.000000 1.000000
vn 0.000000 0.000000 1.000000
vn 0.000000 0.000000 1.000000
vn 0.000000 0.000000 1.000000
vn 0.000000 0.000000 1.000000
vn 0.000000 0.000000 1.000000
vn 0.000000 0.000000 1.000000
vn 0.000000 0.000000 1.000000
vn 0.000000 0.000000 1.000000
vn 0.000000 0.000000 1.000000
vn 0.000000 0.000000 1.000000
vn 0.000000 0.000000 1.000000
vn 0.000000 0.000000 1.000000
vn 0.000000 0.000000 1.000000
vn 0.000000 0.000000 1.000000
vn 0.000000 0.000000 1.000000
vn 0.000000 0.000000 1.000000
vn 0.000000 0.000000 1.000000
vn 0.000000 0.000000 1.000000
vn 0.000000 0.000000 1.000000
vn 0.000000 0.000000 1.000000
vn 0.000000 0.000000 1.000000
vn 0.000000 0.000000 1.000000
vn 0.000000 0.000000 1.000000
vn 0.000000 0.000000 1.000000
vn 0.000000 0.000000 1.000000
vn 0.000000 0.000000 1.000000
vn 0.000000 0.000000 1.000000
vn 0.000000 0.000000 1.000000
vn 0.000000 0.000000 1.000000
vn 0.000000 0.000000 1.000000
vn 0.000000 0.000000 1.000000
vn 0.000000 0.000000 1.000000
vn 0.000000 0.000000 1.000000
vn 0.000000 0.000000 1.000000
vn 0.000000 0.000000 1.000000
vn 0.000000 0.000000 1.000000
vn 0.000000 0.000000 1.000000
vn 0.000000 0.000000 1.000000
vn 0.000000 0.000000 1.000000
vn 0.000000 0.000000 1.000000
vn 0.000000 0.000000 1.000000
vn 0.000000 0.000000 1.000000
vn 0.000000 0.000000 1.000000
vn 0.000000 0.000000 1.000000
vn 0.000000 0.000000 1.000000
vn 0.000000 0.000000 1.000000
vn 0.000000 0.000000 1.000000
vn 0.000000 0.000000 1.000000
vn 0.000000 0.000000 1.000000
vn 0.000000 0.000000 1.000000
vn 0.000000 0.000000 1.000000
vn 0.000000 0.000000 1.000000
vn 0.000000 0.000000 1.000000
vn 0.000000 0.000000 1.000000
vn 0.000000 0.000000 1.000000
vn 0.000000 0.000000 1.000000
vn 0.000000 0.000000 1.000000
vn 0.000000 0.000000 1.000000
vn 0.000000 0.000000 1.000000
vn 0.000000 0.000000 1.000000
vn 0.000000 0.000000 1.000000
vn 0.000000 0.000000 1.000000
vn 0.000000 0.000000 1.000000
vn 0.000000 0.000000 1.000000
vn 0.000000 0.000000 1.000000
vn 0.000000 0.000000 1.000000
vn 0.000000 0.000000 1.000000
vn 0.000000 0.000000 1.000000
vn 0.000000 0.000000 1.000000
vn 0.000000 0.000000 1.000000
vn 0.000000 0.000000 1.000000
vn 0.000000 0.000000 1.000000
vn 0.000000 0.000000 1.000000
vn 0.000000 0.000000 1.000000
vn 0.000000 0.000000 1.000000
vn 0.000000 0.000000 1.000000
vn 0.000000 0.000000 1.000000
vn 0.000000 0.000000 1.000000
vn 0.000000 0.000000 1.000000
vn 0.000000 0.000000 1.000000
vn 0.000000 0.000000 1.000000
vn 0.000000 0.000000 1.000000
vn 0.000000 0.000000 1.000000
vn 0.000000 0.000000 1.000000
vn 0.000000 0.000000 1.000000
vn 0.000000 0.000000 1.000000
vn 0.000000 0.000000 1.000000
vn 0.000000 0.000000 1.000000
vn 0.000000 0.000000 1.000000
vn 0.000000 0.000000 1.000000
vn 0.000000 0.000000 1.000000
vn 0.000000 0.000000 1.000000
vn 0.000000 0.000000 1.000000
vn 0.000000 0.000000 1.000000
vn 0.000000 0.000000 1.000000
vn 0.000000 0.000000 1.000000
vn 0.000000 0.000000 1.000000
vn 0.000000 0.000000 1.000000
vn 0.000000 0.000000 1.000000
vn 0.000000 0.000000 1.000000
vn 0.000000 0.000000 1.000000
vn 0.000000 0.000000 1.000000
vn 0.000000 0.000000 1.000000
vn 0.000000 0.000000 1.000000
vn 0.000000 0.000000 1.000000
vn 0.000000 0.000000 1.000000
vn 0.000000 0.000000 1.000000
vn 0.000000 0.000000 1.000000
vn 0.000000 0.000000 1.000000
vn 0.000000 0.000000 1.000000
vn 0.000000 0.000000 1.000000
vn 0.000000 0.000000 1.000000
vn 0.000000 0.000000 1.000000
vn 0.000000 0.000000 1.000000
vn 0.000000 0.000000 1.000000
vn 0.000000 0.000000 1.000000
vn 0.000000 0.000000 1.000000
vn 0.000000 0.000000 1.000000
vn 0.000000 0.000000 1.000000
vn 0.000000 0.000000 1.000000
vn 0.000000 0.000000 1.000000
vn 0.000000 0.000000 1.000000
vn 0.000000 0.000000 1.000000
vt 0.000000 0.000000
vt 0.000000 0.000000
vt 0.000000 0.000000
vt 0.001000 0.003100
vt 0.681600 5.191800
vt 0.682300 5.197000
vt 0.000400 0.003100
vt 0.000000 0.000000
vt 0.000000 0.000000
vt 0.000000 0.000000
vt 0.000000 0.000000
vt 0.000500 -0.001200
vt 0.000600 -0.001600
vt 0.000000 0.000000
vt 0.000000 0.000000
vt 0.001000 0.003100
vt 0.734700 0.815600
vt 0.000700 0.005200
vt 0.681600 5.191800
vt -0.001900 0.001600
vt -1.746300 1.267100
vt 0.679500 3.368100
vt 0.000900 0.004200
vt 0.000900 0.004200
vt 0.000900 0.004200
vt 0.000900 0.004200
vt -0.483900 0.412500
vt 0.002800 0.000500
vt 0.729900 -0.062800
vt 0.004000 -0.000000
vt 0.678000 0.409900
vt 0.003600 0.002200
vt 0.009200 0.000200
vt 6.754500 0.114300
vt -0.004100 0.000200
vt -2.988300 0.114300
vt -1.746300 1.267100
vt -0.001900 0.001600
vt 0.000000 0.000000
vt -1.730300 1.252000
vt 0.679500 3.368100
vt -1.746300 1.267100
vt -1.748500 1.268000
vt 0.682300 3.373800
vt 0.678000 0.409900
vt 0.004000 -0.000000
vt 0.000700 0.000400
vt 0.681600 0.412100
vt 0.000600 -0.001600
vt 0.734900 -1.881400
vt 0.000600 -0.001600
vt 0.000500 -0.001200
vt 0.000000 0.000000
vt 0.003600 0.002200
vt 0.003800 0.002300
vt 0.000000 0.000000
vt 0.002800 0.000500
vt 0.003600 0.002200
vt 0.000000 0.000000
vt 0.000500 -0.001200
vt 0.678000 0.409900
vt 0.681600 0.412100
vt 0.682300 0.412500
vt 0.678500 0.410300
vt 0.004000 -0.000000
vt 0.004100 -0.000400
vt 0.000000 0.000000
vt 0.000700 0.000400
vt 0.004000 -0.000000
vt 0.729900 -0.062800
vt 0.731600 -0.063100
vt 0.004100 -0.000400
vt 0.009200 0.000200
vt -2.988300 0.114300
vt -2.989400 0.114300
vt 0.000000 0.000000
vt 0.000600 -0.001600
vt 0.000800 -0.001900
vt 0.000000 0.000000
vt 0.000000 0.000000
vt -0.004100 0.000200
vt 6.754500 0.114300
vt 6.763800 0.114400
vt 0.006600 0.000100
vt 0.000600 -0.001600
vt 0.000600 -0.001600
vt 0.000600 -0.001600
vt 0.000600 -0.001600
vt 0.000800 -0.001900
vt 0.000800 -0.001900
vt 0.000800 -0.001900
vt 0.000800 -0.001900
vt 0.000000 0.000000
vt 0.000000 0.000000
vt 0.000000 0.000000
vt 0.000000 0.000000
vt 0.729900 -0.062800
vt 0.729900 -0.062800
vt 0.729900 -0.062800
vt 0.729900 -0.062800
vt 0.000000 0.000000
vt 0.000000 0.000000
vt 0.000000 0.000000
vt 0.000000 0.000000
vt 0.003600 0.002200
vt 0.003600 0.002200
vt 0.003600 0.002200
vt 0.003600 0.002200
vt 0.003800 0.002300
vt 0.003800 0.002300
vt 0.003800 0.002300
vt 0.003800 0.002300
vt 0.000000 0.000000
vt 0.000000 0.000000
vt 0.000000 0.000000
vt 0.000000 0.000000
vt 0.679500 3.368100
vt 0.679500 3.368100
vt 0.679500 3.368100
vt 0.000000 0.000000
vt 0.000000 0.000000
vt 0.000000 0.000000
vt 0.000000 0.000000
vt 0.678000 0.409900
vt 0.678000 0.409900
vt 0.678000 0.409900
vt 0.678000 0.409900
vt 0.681600 0.412100
vt 0.681600 0.412100
vt 0.681600 0.412100
vt 0.681600 0.412100
vt 0.682300 0.412500
vt 0.682300 0.412500
vt 0.682300 0.412500
vt 0.682300 0.412500
vt 0.004000 -0.000000
vt 0.004000 -0.000000
vt 0.004000 -0.000000
vt 0.004000 -0.000000
vt 0.004100 -0.000400
vt 0.004100 -0.000400
vt 0.004100 -0.000400
vt 0.004100 -0.000400
vt 0.000000 0.000000
vt 0.000000 0.000000
vt 0.000000 0.000000
vt 0.000000 0.000000
vt 0.734700 0.815600
vt 0.734700 0.815600
vt 0.734700 0.815600
vt 0.734700 0.815600
vt -0.004100 0.000200
vt -0.004100 0.000200
vt -0.004100 0.000200
vt 0.000500 -0.001200
vt 0.000500 -0.001200
vt 0.000500 -0.001200
vt 0.002800 0.000500
vt 0.002800 0.000500
vt 0.002800 0.000500
vt 0.000000 0.000000
vt 0.000000 0.000000
vt 0.731600 -0.063100
vt 0.731600 -0.063100
vt -1.748500 1.268000
vt -1.746300 1.267100
vt -1.746300 1.267100
vt -1.748500 1.268000
vt -1.746300 1.267100
vt -1.730300 1.252000
vt -1.730300 1.252000
vt 0.000000 0.000000
vt 0.000000 0.000000
vt 0.000000 0.000000
vt 0.000000 0.000000
vt 0.000000 0.000000
vt 0.000000 0.000000
vt 0.001000 0.003100
vt 0.000400 0.003100
vt 0.000400 0.003100
vt 0.001000 0.003100
vt 0.000700 0.000400
vt 0.000700 0.000400
vt 0.000000 0.000000
vt 0.000000 0.000000
vt 0.000000 0.000000
vt 0.000000 0.000000
vt 0.734900 -1.881400
vt 0.734900 -1.881400
vt -1.746300 1.267100
vt -0.001900 0.001600
vt -0.001900 0.001600
vt 0.000000 0.000000
vt 0.000000 0.000000
vt 0.000000 0.000000
vt 0.000000 0.000000
vt 0.000000 0.000000
vt 0.000000 0.000000
vt 0.000000 0.000000
vt 0.000000 0.000000
vt 0.001000 0.003100
vt 0.681600 5.191800
vt 0.681600 5.191800
vt 0.000700 0.005200
vt 0.000700 0.005200
vt 0.001000 0.003100
vt 0.000000 0.000000
vt 0.006600 0.000100
vt 0.006600 0.000100
vt -2.989400 0.114300
vt -2.988300 0.114300
vt -2.988300 0.114300
vt -2.989400 0.114300
vt 0.009200 0.000200
vt -2.988300 0.114300
vt 0.009200 0.000200
vt 6.754500 0.114300
vt 6.754500 0.114300
f 1/1/1 2/2/2 3/3/3
f 4/4/4 5/5/5 6/6/6
f 4/4/4 6/6/6 7/7/7
f 8/8/8 9/9/9 10/10/10
f 8/8/8 10/10/10 11/11/11
f 12/12/12 13/13/13 14/14/14
f 12/12/12 14/14/14 15/15/15
f 16/16/16 17/17/17 18/18/18
f 16/16/16 18/18/18 19/19/19
f 20/20/20 21/21/21 22/22/22
f 20/20/20 22/22/22 23/23/23
f 20/20/20 23/23/23 24/24/24
f 20/20/20 24/24/24 25/25/25
f 20/20/20 25/25/25 26/26/26
f 20/20/20 26/26/26 27/27/27
f 28/28/28 29/29/29 30/30/30
f 28/28/28 30/30/30 31/31/31
f 28/28/28 31/31/31 32/32/32
f 33/33/33 34/34/34 35/35/35
f 33/33/33 35/35/35 36/36/36
f 37/37/37 38/38/38 39/39/39
f 37/37/37 39/39/39 40/40/40
f 41/41/41 42/42/42 43/43/43
f 41/41/41 43/43/43 44/44/44
f 45/45/45 46/46/46 47/47/47
f 45/45/45 47/47/47 48/48/48
f 49/49/49 50/50/50 51/51/51
f 49/49/49 51/51/51 52/52/52
f 49/49/49 52/52/52 53/53/53
f 54/54/54 55/55/55 56/56/56
f 57/57/57 58/58/58 59/59/59
f 57/57/57 59/59/59 60/60/60
f 61/61/61 62/62/62 63/63/63
f 61/61/61 63/63/63 64/64/64
f 65/65/65 66/66/66 67/67/67
f 65/65/65 67/67/67 68/68/68
f 69/69/69 70/70/70 71/71/71
f 69/69/69 71/71/71 72/72/72
f 73/73/73 74/74/74 75/75/75
f 73/73/73 75/75/75 76/76/76
f 77/77/77 78/78/78 79/79/79
f 77/77/77 79/79/79 80/80/80
f 81/81/81 82/82/82 83/83/83
f 81/81/81 83/83/83 84/84/84
f 85/85/85 86/86/86 87/87/87
f 85/85/85 87/87/87 88/88/88
f 89/89/89 90/90/90 91/91/91
f 89/89/89 91/91/91 92/92/92
f 93/93/93 94/94/94 95/95/95
f 93/93/93 95/95/95 96/96/96
f 97/97/97 98/98/98 99/99/99
f 97/97/97 99/99/99 100/100/100
f 101/101/101 102/102/102 103/103/103
f 101/101/101 103/103/103 104/104/104
f 105/105/105 106/106/106 107/107/107
f 105/105/105 107/107/107 108/108/108
f 109/109/109 110/110/110 111/111/111
f 109/109/109 111/111/111 112/112/112
f 113/113/113 114/114/114 115/115/115
f 113/113/113 115/115/115 116/116/116
f 117/117/117 118/118/118 119/119/119
f 120/120/120 121/121/121 122/122/122
f 120/120/120 122/122/122 123/123/123
f 124/124/124 125/125/125 126/126/126
f 124/124/124 126/126/126 127/127/127
f 128/128/128 129/129/129 130/130/130
f 128/128/128 130/130/130 131/131/131
f 132/132/132 133/133/133 134/134/134
f 132/132/132 134/134/134 135/135/135
f 136/136/136 137/137/137 138/138/138
f 136/136/136 138/138/138 139/139/139
f 140/140/140 141/141/141 142/142/142
f 140/140/140 142/142/142 143/143/143
f 144/144/144 145/145/145 146/146/146
f 144/144/144 146/146/146 147/147/147
f 148/148/148 149/149/149 150/150/150
f 148/148/148 150/150/150 151/151/151
f 152/152/152 153/153/153 154/154/154
f 155/155/155 156/156/156 157/157/157
f 158/158/158 159/159/159 160/160/160
f 161/161/161 85/85/85 88/88/88
f 161/161/161 88/88/88 162/162/162
f 163/163/163 99/99/99 98/98/98
f 163/163/163 98/98/98 164/164/164
f 165/165/165 166/166/166 167/167/167
f 165/165/165 167/167/167 168/168/168
f 169/169/169 170/170/170 171/171/171
f 169/169/169 171/171/171 167/167/167
f 101/101/101 172/172/172 173/173/173
f 101/101/101 173/173/173 102/102/102
f 174/174/174 175/175/175 176/176/176
f 174/174/174 176/176/176 177/177/177
f 113/113/113 105/105/105 108/108/108
f 113/113/113 108/108/108 114/114/114
f 126/126/126 128/128/128 131/131/131
f 126/126/126 131/131/131 127/127/127
f 178/178/178 179/179/179 180/180/180
f 178/178/178 180/180/180 181/181/181
f 182/182/182 136/136/136 139/139/139
f 182/182/182 139/139/139 183/183/183
f 138/138/138 140/140/140 143/143/143
f 138/138/138 143/143/143 139/139/139
f 184/184/184 185/185/185 186/186/186
f 184/184/184 186/186/186 187/187/187
f 86/86/86 188/188/188 189/189/189
f 86/86/86 189/189/189 87/87/87
f 190/190/190 191/191/191 192/192/192
f 190/190/190 192/192/192 169/169/169
f 155/155/155 193/193/193 160/160/160
f 155/155/155 160/160/160 156/156/156
f 159/159/159 106/106/106 105/105/105
f 159/159/159 105/105/105 160/160/160
f 116/116/116 157/157/157 156/156/156
f 116/116/116 156/156/156 113/113/113
f 106/106/106 125/125/125 124/124/124
f 106/106/106 124/124/124 107/107/107
f 194/194/194 195/195/195 196/196/196
f 194/194/194 196/196/196 197/197/197
f 137/137/137 100/100/100 99/99/99
f 137/137/137 99/99/99 138/138/138
f 118/118/118 190/190/190 166/166/166
f 118/118/118 166/166/166 119/119/119
f 198/198/198 199/199/199 200/200/200
f 198/198/198 200/200/200 174/174/174
f 201/201/201 202/202/202 203/203/203
f 201/201/201 203/203/203 178/178/178
f 204/204/204 151/151/151 150/150/150
f 204/204/204 150/150/150 205/205/205
f 125/125/125 137/137/137 136/136/136
f 125/125/125 136/136/136 126/126/126
f 151/151/151 201/201/201 206/206/206
f 151/151/151 206/206/206 148/148/148
f 104/104/104 207/207/207 185/185/185
f 104/104/104 185/185/185 101/101/101
f 152/152/152 208/208/208 209/209/209
f 152/152/152 209/209/209 153/153/153
f 210/210/210 211/211/211 212/212/212
f 210/210/210 212/212/212 213/213/213
f 157/157/157 86/86/86 85/85/85
f 157/157/157 85/85/85 155/155/155
f 100/100/100 159/159/159 158/158/158
f 100/100/100 158/158/158 97/97/97
f 214/214/214 215/215/215 211/211/211
f 214/214/214 211/211/211 216/216/216
f 154/154/154 217/217/217 218/218/218
f 154/154/154 218/218/218 152/152/152
