v -9.326141 0.000000 0.094700
v -9.326141 0.149423 0.094700
v -8.804266 0.149423 0.094700
v -8.804266 0.000000 0.094700
v -8.804266 0.000000 0.094700
v -8.804266 0.149423 0.094700
v -8.804266 0.149423 -2.998156
v -8.804266 0.000000 -2.998156
v -9.305525 -0.001619 0.135966
v -8.762762 -0.001619 0.135966
v -8.762762 0.151042 0.135966
v -9.305525 0.151042 0.135966
v -8.762762 -0.001619 0.135966
v -8.762762 -0.001619 -3.080687
v -8.762762 0.151042 -3.080687
v -8.762762 0.151042 0.135966
v -9.326141 0.000000 0.094700
v -8.804266 0.000000 0.094700
v -8.762762 -0.001619 0.135966
v -9.305525 -0.001619 0.135966
v -8.762762 0.151042 -3.080687
v -8.762762 -0.001619 -3.080687
v -8.804266 0.000000 -2.998156
v -8.804266 0.149423 -2.998156
v -9.305525 0.151042 0.135966
v -8.762762 0.151042 0.135966
v -8.804266 0.149423 0.094700
v -9.326141 0.149423 0.094700
v -9.326141 0.149423 0.094700
v -9.326141 0.000000 0.094700
v -9.305525 -0.001619 0.135966
v -9.305525 0.151042 0.135966
v -8.762762 -0.001619 -3.080687
v -8.762762 -0.001619 0.135966
v -8.804266 0.000000 0.094700
v -8.804266 0.000000 -2.998156
v -8.762762 0.151042 0.135966
v -8.762762 0.151042 -3.080687
v -8.804266 0.149423 -2.998156
v -8.804266 0.149423 0.094700
vn 0.000000 0.000000 -1.000000
vn 0.000000 0.000000 -1.000000
vn 0.000000 0.000000 -1.000000
vn 0.000000 0.000000 -1.000000
vn -1.000000 0.000000 0.000000
vn -1.000000 0.000000 0.000000
vn -1.000000 0.000000 0.000000
vn -1.000000 0.000000 0.000000
vn 0.000000 0.000000 1.000000
vn 0.000000 0.000000 1.000000
vn 0.000000 0.000000 1.000000
vn 0.000000 0.000000 1.000000
vn 1.000000 0.000000 0.000000
vn 1.000000 0.000000 0.000000
vn 1.000000 0.000000 0.000000
vn 1.000000 0.000000 0.000000
vn 0.000000 -0.999200 -0.039200
vn 0.000000 -0.999200 -0.039200
vn 0.000000 -0.999200 -0.039200
vn 0.000000 -0.999200 -0.039200
vn -0.893400 0.000000 -0.449300
vn -0.893400 0.000000 -0.449300
vn -0.893400 0.000000 -0.449300
vn -0.893400 0.000000 -0.449300
vn 0.000000 0.999200 -0.039200
vn 0.000000 0.999200 -0.039200
vn 0.000000 0.999200 -0.039200
vn 0.000000 0.999200 -0.039200
vn -0.894600 0.000000 0.446900
vn -0.894600 0.000000 0.446900
vn -0.894600 0.000000 0.446900
vn -0.894600 0.000000 0.446900
vn -0.039000 -0.999200 0.000000
vn -0.039000 -0.999200 0.000000
vn -0.039000 -0.999200 0.000000
vn -0.039000 -0.999200 0.000000
vn -0.039000 0.999200 0.000000
vn -0.039000 0.999200 0.000000
vn -0.039000 0.999200 0.000000
vn -0.039000 0.999200 0.000000
vt 0.628900 1.051000
vt 0.649900 1.051000
vt 0.649900 0.875600
vt 0.628900 0.875600
vt 0.628900 0.889100
vt 0.649900 0.889100
vt 0.649900 0.015600
vt 0.628900 0.015600
vt 0.628900 1.051000
vt 0.628900 0.875600
vt 0.649900 0.875600
vt 0.649900 1.051000
vt 0.628900 0.889100
vt 0.628900 0.015600
vt 0.649900 0.015600
vt 0.649900 0.889100
vt 0.628900 1.051000
vt 0.628900 0.875600
vt 0.628900 0.875600
vt 0.628900 1.051000
vt 0.649900 0.015600
vt 0.628900 0.015600
vt 0.628900 0.015600
vt 0.649900 0.015600
vt 0.649900 1.051000
vt 0.649900 0.875600
vt 0.649900 0.875600
vt 0.649900 1.051000
vt 0.649900 1.051000
vt 0.628900 1.051000
vt 0.628900 1.051000
vt 0.649900 1.051000
vt 0.628900 0.015600
vt 0.628900 0.889100
vt 0.628900 0.889100
vt 0.628900 0.015600
vt 0.649900 0.889100
vt 0.649900 0.015600
vt 0.649900 0.015600
vt 0.649900 0.889100
f 1/1/1 2/2/2 3/3/3
f 1/1/1 3/3/3 4/4/4
f 5/5/5 6/6/6 7/7/7
f 5/5/5 7/7/7 8/8/8
f 9/9/9 10/10/10 11/11/11
f 9/9/9 11/11/11 12/12/12
f 13/13/13 14/14/14 15/15/15
f 13/13/13 15/15/15 16/16/16
f 17/17/17 18/18/18 19/19/19
f 17/17/17 19/19/19 20/20/20
f 21/21/21 22/22/22 23/23/23
f 21/21/21 23/23/23 24/24/24
f 25/25/25 26/26/26 27/27/27
f 25/25/25 27/27/27 28/28/28
f 29/29/29 30/30/30 31/31/31
f 29/29/29 31/31/31 32/32/32
f 33/33/33 34/34/34 35/35/35
f 33/33/33 35/35/35 36/36/36
f 37/37/37 38/38/38 39/39/39
f 37/37/37 39/39/39 40/40/40
