v 2.624965 1.025936 -2.991687
v 2.624965 1.174587 -2.991687
v 2.610292 1.159914 -2.991687
v 2.610292 1.040609 -2.991687
v 2.490987 1.040609 -2.991687
v 2.476314 1.025936 -2.991687
v 2.624965 1.174587 -2.991687
v 2.476314 1.174587 -2.991687
v 2.490987 1.159914 -2.991687
v 2.610292 1.159914 -2.991687
v 2.476314 1.025936 -2.991687
v 2.490987 1.040609 -2.991687
v 2.635433 1.015468 -2.995835
v 2.635433 1.185055 -2.995835
v 2.624965 1.174587 -2.991687
v 2.624965 1.025936 -2.991687
v 2.635433 1.185055 -2.995835
v 2.465847 1.185055 -2.995835
v 2.476314 1.174587 -2.991687
v 2.624965 1.174587 -2.991687
v 2.465847 1.185055 -2.995835
v 2.465847 1.015468 -2.995835
v 2.476314 1.025936 -2.991687
v 2.476314 1.174587 -2.991687
v 2.635433 1.015468 -2.995835
v 2.624965 1.025936 -2.991687
v 2.476314 1.025936 -2.991687
v 2.465847 1.015468 -2.995835
v 2.635433 1.015468 -2.998336
v 2.635433 1.185055 -2.998336
v 2.635433 1.185055 -2.995835
v 2.635433 1.015468 -2.995835
v 2.465847 1.185055 -2.998336
v 2.465847 1.015468 -2.998336
v 2.465847 1.015468 -2.995835
v 2.465847 1.185055 -2.995835
v 2.635433 1.015468 -2.998336
v 2.635433 1.015468 -2.995835
v 2.465847 1.015468 -2.995835
v 2.465847 1.015468 -2.998336
v 2.635433 1.185055 -2.998336
v 2.465847 1.185055 -2.998336
v 2.465847 1.185055 -2.995835
v 2.635433 1.185055 -2.995835
v 2.610292 1.040609 -2.991687
v 2.610292 1.159914 -2.991687
v 2.610292 1.159914 -2.995801
v 2.610292 1.040609 -2.995801
v 2.610292 1.040609 -2.991687
v 2.610292 1.040609 -2.995801
v 2.490987 1.040609 -2.995801
v 2.490987 1.040609 -2.991687
v 2.610292 1.159914 -2.991687
v 2.490987 1.159914 -2.991687
v 2.490987 1.159914 -2.995801
v 2.610292 1.159914 -2.995801
v 2.490987 1.159914 -2.991687
v 2.490987 1.040609 -2.991687
v 2.490987 1.040609 -2.995801
v 2.490987 1.159914 -2.995801
vn -0.000000 0.000000 1.000000
vn -0.000000 0.000000 1.000000
vn -0.000000 0.000000 1.000000
vn -0.000000 0.000000 1.000000
vn -0.000000 0.000000 1.000000
vn -0.000000 0.000000 1.000000
vn -0.000000 0.000000 1.000000
vn -0.000000 0.000000 1.000000
vn -0.000000 0.000000 1.000000
vn -0.000000 0.000000 1.000000
vn -0.000000 0.000000 1.000000
vn -0.000000 0.000000 1.000000
vn 0.368400 0.000000 0.929700
vn 0.368400 0.000000 0.929700
vn 0.368400 0.000000 0.929700
vn 0.368400 0.000000 0.929700
vn 0.000000 0.368400 0.929700
vn 0.000000 0.368400 0.929700
vn 0.000000 0.368400 0.929700
vn 0.000000 0.368400 0.929700
vn -0.368400 0.000000 0.929700
vn -0.368400 0.000000 0.929700
vn -0.368400 0.000000 0.929700
vn -0.368400 0.000000 0.929700
vn 0.000000 -0.368400 0.929700
vn 0.000000 -0.368400 0.929700
vn 0.000000 -0.368400 0.929700
vn 0.000000 -0.368400 0.929700
vn 1.000000 0.000000 0.000000
vn 1.000000 0.000000 0.000000
vn 1.000000 0.000000 0.000000
vn 1.000000 0.000000 0.000000
vn -1.000000 0.000000 0.000000
vn -1.000000 0.000000 0.000000
vn -1.000000 0.000000 0.000000
vn -1.000000 0.000000 0.000000
vn 0.000000 -1.000000 0.000000
vn 0.000000 -1.000000 0.000000
vn 0.000000 -1.000000 0.000000
vn 0.000000 -1.000000 0.000000
vn 0.000000 1.000000 0.000000
vn 0.000000 1.000000 0.000000
vn 0.000000 1.000000 0.000000
vn 0.000000 1.000000 0.000000
vn -1.000000 0.000000 0.000000
vn -1.000000 0.000000 0.000000
vn -1.000000 0.000000 0.000000
vn -1.000000 0.000000 0.000000
vn 0.000000 1.000000 0.000000
vn 0.000000 1.000000 0.000000
vn 0.000000 1.000000 0.000000
vn 0.000000 1.000000 0.000000
vn 0.000000 -1.000000 0.000000
vn 0.000000 -1.000000 0.000000
vn 0.000000 -1.000000 0.000000
vn 0.000000 -1.000000 0.000000
vn 1.000000 0.000000 0.000000
vn 1.000000 0.000000 0.000000
vn 1.000000 0.000000 0.000000
vn 1.000000 0.000000 0.000000
vt 0.454400 0.551000
vt 0.454400 0.814500
vt 0.445500 0.803400
vt 0.445500 0.562100
vt 0.252500 0.562100
vt 0.243600 0.551000
vt 0.451200 0.826900
vt 0.240400 0.826900
vt 0.249300 0.815800
vt 0.442300 0.815800
vt 0.240400 0.563400
vt 0.249300 0.574500
vt 0.469200 0.532400
vt 0.469200 0.833100
vt 0.454400 0.814500
vt 0.454400 0.551000
vt 0.466100 0.845500
vt 0.225600 0.845500
vt 0.240400 0.826900
vt 0.451200 0.826900
vt 0.225600 0.845500
vt 0.225600 0.544900
vt 0.240400 0.563400
vt 0.240400 0.826900
vt 0.469200 0.532400
vt 0.454400 0.551000
vt 0.243600 0.551000
vt 0.228700 0.532400
vt 0.199500 0.821900
vt 0.440000 0.821900
vt 0.440000 0.825900
vt 0.199500 0.825900
vt 0.459600 0.821900
vt 0.219100 0.821900
vt 0.219100 0.825900
vt 0.459600 0.825900
vt 0.466100 0.832600
vt 0.466100 0.836600
vt 0.225600 0.836600
vt 0.225600 0.832600
vt 0.466100 0.832600
vt 0.225600 0.832600
vt 0.225600 0.836600
vt 0.466100 0.836600
vt 0.223300 0.832500
vt 0.416300 0.832500
vt 0.416300 0.826000
vt 0.223300 0.826000
vt 0.442300 0.843200
vt 0.442300 0.836600
vt 0.249300 0.836600
vt 0.249300 0.843200
vt 0.442300 0.843200
vt 0.249300 0.843200
vt 0.249300 0.836600
vt 0.442300 0.836600
vt 0.435800 0.832500
vt 0.242800 0.832500
vt 0.242800 0.826000
vt 0.435800 0.826000
f 1/1/1 2/2/2 3/3/3
f 1/1/1 3/3/3 4/4/4
f 1/1/1 4/4/4 5/5/5
f 1/1/1 5/5/5 6/6/6
f 7/7/7 8/8/8 9/9/9
f 7/7/7 9/9/9 10/10/10
f 8/8/8 11/11/11 12/12/12
f 8/8/8 12/12/12 9/9/9
f 13/13/13 14/14/14 15/15/15
f 13/13/13 15/15/15 16/16/16
f 17/17/17 18/18/18 19/19/19
f 17/17/17 19/19/19 20/20/20
f 21/21/21 22/22/22 23/23/23
f 21/21/21 23/23/23 24/24/24
f 25/25/25 26/26/26 27/27/27
f 25/25/25 27/27/27 28/28/28
f 29/29/29 30/30/30 31/31/31
f 29/29/29 31/31/31 32/32/32
f 33/33/33 34/34/34 35/35/35
f 33/33/33 35/35/35 36/36/36
f 37/37/37 38/38/38 39/39/39
f 37/37/37 39/39/39 40/40/40
f 41/41/41 42/42/42 43/43/43
f 41/41/41 43/43/43 44/44/44
f 45/45/45 46/46/46 47/47/47
f 45/45/45 47/47/47 48/48/48
f 49/49/49 50/50/50 51/51/51
f 49/49/49 51/51/51 52/52/52
f 53/53/53 54/54/54 55/55/55
f 53/53/53 55/55/55 56/56/56
f 57/57/57 58/58/58 59/59/59
f 57/57/57 59/59/59 60/60/60
