v 3.593411 0.000000 2.998156
v 7.162574 0.000000 2.998156
v 7.162574 0.000000 0.089017
v 2.261101 0.000000 0.522335
v -9.717390 0.000000 0.089017
v -10.239264 0.000000 0.089017
v -10.239264 0.000000 2.998156
v -9.717390 0.000000 2.998156
v -3.611555 0.000000 0.522335
v -2.567123 0.000000 2.998156
v 7.162574 0.000000 -2.998156
v 1.948049 0.000000 -2.998156
v 1.948049 0.000000 0.025299
v 7.162574 0.000000 -0.594543
v 7.162574 0.000000 6.950971
v 3.593411 0.000000 6.950971
v -14.109312 0.000000 0.089017
v -14.109312 0.000000 2.998156
v -3.856965 0.000000 -2.998156
v -9.717390 0.000000 -2.998156
v -9.717390 0.000000 -0.594543
v -3.856965 0.000000 0.025299
v -10.239264 0.000000 -0.594543
v -10.239264 0.000000 -2.998156
v -14.109312 0.000000 -0.594543
v -14.109312 0.000000 -2.998156
v -3.856965 -0.088774 -0.161226
v -3.856965 -0.088774 -2.998156
v -3.856965 0.000000 -2.998156
v -3.856965 0.000000 0.025299
vn 0.000000 1.000000 0.000000
vn 0.000000 1.000000 0.000000
vn 0.000000 1.000000 0.000000
vn 0.000000 1.000000 0.000000
vn 0.000000 1.000000 0.000000
vn 0.000000 1.000000 0.000000
vn 0.000000 1.000000 0.000000
vn 0.000000 1.000000 0.000000
vn 0.000000 1.000000 0.000000
vn 0.000000 1.000000 0.000000
vn 0.000000 1.000000 0.000000
vn 0.000000 1.000000 0.000000
vn 0.000000 1.000000 0.000000
vn 0.000000 1.000000 0.000000
vn 0.000000 1.000000 0.000000
vn 0.000000 1.000000 0.000000
vn 0.000000 1.000000 0.000000
vn 0.000000 1.000000 0.000000
vn 0.000000 1.000000 0.000000
vn 0.000000 1.000000 0.000000
vn 0.000000 1.000000 0.000000
vn 0.000000 1.000000 0.000000
vn 0.000000 1.000000 0.000000
vn 0.000000 1.000000 0.000000
vn 0.000000 1.000000 0.000000
vn 0.000000 1.000000 0.000000
vn 1.000000 -0.000000 0.000000
vn 1.000000 -0.000000 0.000000
vn 1.000000 -0.000000 0.000000
vn 1.000000 -0.000000 0.000000
vt 3.254500 0.248600
vt 4.635600 0.248600
vt 4.635600 1.374300
vt 2.739000 1.206700
vt -1.896200 1.374300
vt -2.098200 1.374300
vt -2.098200 0.248600
vt -1.896200 0.248600
vt 0.466500 1.206700
vt 0.870600 0.248600
vt 4.635600 2.568900
vt 2.617800 2.568900
vt 2.617800 1.399000
vt 4.635600 1.638800
vt 4.635600 -1.281000
vt 3.254500 -1.281000
vt -3.595700 1.374300
vt -3.595700 0.248600
vt 0.371500 2.568900
vt -1.896200 2.568900
vt -1.896200 1.638800
vt 0.371500 1.399000
vt -2.098200 1.638800
vt -2.098200 2.568900
vt -3.595700 1.638800
vt -3.595700 2.568900
vt 0.371500 1.471200
vt 0.371500 2.568900
vt 0.371500 2.568900
vt 0.371500 1.399000
f 1/1/1 2/2/2 3/3/3
f 1/1/1 3/3/3 4/4/4
f 5/5/5 6/6/6 7/7/7
f 5/5/5 7/7/7 8/8/8
f 4/4/4 9/9/9 10/10/10
f 4/4/4 10/10/10 1/1/1
f 11/11/11 12/12/12 13/13/13
f 11/11/11 13/13/13 14/14/14
f 15/15/15 2/2/2 1/1/1
f 15/15/15 1/1/1 16/16/16
f 6/6/6 17/17/17 18/18/18
f 6/6/6 18/18/18 7/7/7
f 9/9/9 5/5/5 8/8/8
f 9/9/9 8/8/8 10/10/10
f 19/19/19 20/20/20 21/21/21
f 19/19/19 21/21/21 22/22/22
f 23/23/23 21/21/21 20/20/20
f 23/23/23 20/20/20 24/24/24
f 25/25/25 23/23/23 24/24/24
f 25/25/25 24/24/24 26/26/26
f 14/14/14 13/13/13 4/4/4
f 14/14/14 4/4/4 3/3/3
f 13/13/13 22/22/22 9/9/9
f 13/13/13 9/9/9 4/4/4
f 23/23/23 25/25/25 17/17/17
f 23/23/23 17/17/17 6/6/6
f 22/22/22 21/21/21 5/5/5
f 22/22/22 5/5/5 9/9/9
f 27/27/27 28/28/28 29/29/29
f 27/27/27 29/29/29 30/30/30
f 23/23/23 6/6/6 5/5/5
f 23/23/23 5/5/5 21/21/21
