v -13.726391 0.149423 0.116412
v -14.108837 0.149423 0.116412
v -14.108837 0.000000 0.116412
v -13.726391 0.000000 0.116412
v -13.726391 0.000000 -0.621938
v -13.726391 0.149423 -0.621938
v -13.726391 0.149423 0.116412
v -13.726391 0.000000 0.116412
v -14.108837 0.149423 -0.621938
v -13.726391 0.149423 -0.621938
v -13.726391 0.000000 -0.621938
v -14.108837 0.000000 -0.621938
v -14.109312 0.000000 0.089017
v -13.755245 0.000000 0.089017
v -13.726391 0.000000 0.116412
v -14.108837 0.000000 0.116412
v -13.726391 0.149423 -0.621938
v -14.108837 0.149423 -0.621938
v -14.109312 0.149423 -0.594543
v -13.755245 0.149423 -0.594543
v -13.726391 0.149423 0.116412
v -13.755245 0.149423 0.089017
v -14.108837 0.000000 -0.621938
v -13.726391 0.000000 -0.621938
v -13.755245 0.000000 -0.594543
v -14.109312 0.000000 -0.594543
v -14.109312 0.149423 0.089017
v -14.108837 0.149423 0.116412
v -13.755245 0.000000 0.089017
v -13.755245 0.000000 -0.594543
v -13.726391 0.000000 -0.621938
v -13.726391 0.000000 0.116412
v -9.717390 0.000000 2.957068
v -11.019745 0.000000 2.957068
v -11.019745 0.149423 2.957068
v -9.717390 0.149423 2.957068
v -9.717390 0.149423 2.957068
v -11.019745 0.149423 2.957068
v -11.019745 0.149423 2.998156
v -9.717390 0.149423 2.998156
v -9.717390 0.000000 2.998156
v -11.019745 0.000000 2.998156
v -11.019745 0.000000 2.957068
v -9.717390 0.000000 2.957068
v -11.019745 0.149423 2.957068
v -11.019745 0.000000 2.957068
v -11.019745 0.000000 2.998156
v -11.019745 0.149423 2.998156
v -9.717390 0.000000 2.998156
v -9.717390 0.000000 2.957068
v -9.694279 0.000000 2.957068
v -9.694279 0.000000 2.998156
v -6.281482 0.000000 2.971916
v -6.281482 0.149423 2.971916
v -5.627376 0.149423 2.971916
v -5.627376 0.000000 2.971916
v -5.627376 0.149423 2.971916
v -5.627376 0.149423 2.998156
v -5.609102 0.149423 2.998156
v -5.609102 0.149423 2.971916
v -5.627376 0.000000 2.998156
v -6.281482 0.000000 2.998156
v -6.281482 0.000000 2.971916
v -5.627376 0.000000 2.971916
v -6.281482 0.149423 2.971916
v -6.281482 0.149423 2.998156
v -6.281482 0.149423 2.971916
v -6.281482 0.000000 2.971916
v -6.281482 0.000000 2.998156
v -6.281482 0.149423 2.998156
v 0.841115 0.000000 2.961878
v 0.841115 0.149423 2.961878
v 2.898965 0.149423 2.961878
v 2.898965 0.000000 2.961878
v 0.811777 0.149423 2.961878
v 0.811777 0.000000 2.961878
v 0.811777 0.000000 2.998156
v 0.811777 0.149423 2.998156
v 0.841115 0.000000 2.961878
v 2.898965 0.000000 2.961878
v 2.898965 0.000000 2.998156
v 0.841115 0.000000 2.998156
v 2.898965 0.149423 2.998156
v 2.898965 0.000000 2.998156
v 2.898965 0.000000 2.961878
v 2.898965 0.149423 2.961878
v 0.841115 0.149423 2.998156
v 2.898965 0.149423 2.998156
v 2.898965 0.149423 2.961878
v 0.841115 0.149423 2.961878
v 0.841115 0.000000 2.998156
v 0.841115 0.149423 2.998156
v 0.841115 0.149423 3.045294
v 0.841115 0.000000 3.045294
v 0.811777 0.000000 2.961878
v 0.811777 0.149423 2.961878
v 0.811777 0.000000 2.961878
v 0.811777 0.000000 2.998156
v 0.811777 0.149423 2.998156
v 0.811777 0.149423 2.961878
v 0.811777 0.000000 3.045294
v 0.811777 0.149423 3.045294
v 0.811777 0.149423 3.045294
v 0.841115 0.149423 3.045294
v 0.811777 0.000000 3.045294
v 0.841115 0.000000 3.045294
v 0.841115 0.149423 3.045294
v 0.811777 0.149423 3.045294
v 0.841115 0.000000 3.045294
v 0.811777 0.000000 3.045294
v 0.811777 0.000000 2.998156
v 0.841115 0.000000 2.998156
v -5.609102 0.149423 2.998156
v -5.609102 0.000000 2.998156
v -5.609102 0.000000 2.971916
v -5.609102 0.149423 2.971916
v -5.609102 0.149423 2.971916
v -5.609102 0.000000 2.971916
v -5.609102 0.000000 2.971916
v -5.609102 0.000000 2.998156
v -5.609102 0.000000 3.517041
v -5.627376 0.000000 3.517041
v -5.627376 0.000000 2.998156
v -5.609102 0.000000 2.998156
v -5.627376 0.149423 3.517041
v -5.627376 0.000000 3.517041
v -5.609102 0.000000 3.517041
v -5.609102 0.149423 3.517041
v -5.627376 0.149423 3.517041
v -5.609102 0.149423 3.517041
v -5.609102 0.149423 2.998156
v -5.627376 0.149423 2.998156
v -5.627376 0.149423 2.998156
v -5.627376 0.000000 2.998156
v -5.627376 0.000000 3.517041
v -5.627376 0.149423 3.517041
v -5.609102 0.149423 3.517041
v -5.609102 0.000000 3.517041
v -5.609102 0.000000 2.998156
v -5.609102 0.149423 2.998156
v -9.694279 0.149423 2.998156
v -9.694279 0.000000 2.998156
v -9.694279 0.000000 2.957068
v -9.694279 0.149423 2.957068
v -9.694279 0.149423 2.957068
v -9.694279 0.000000 2.957068
v -9.694279 0.149423 2.998156
v -9.717390 0.149423 3.161303
v -9.694279 0.149423 3.161303
v -9.694279 0.149423 2.957068
v -9.717390 0.149423 3.161303
v -9.717390 0.000000 3.161303
v -9.694279 0.000000 3.161303
v -9.694279 0.149423 3.161303
v -9.694279 0.149423 3.161303
v -9.694279 0.000000 3.161303
v -9.694279 0.000000 2.998156
v -9.694279 0.149423 2.998156
v -9.717390 0.000000 2.998156
v -9.694279 0.000000 2.998156
v -9.694279 0.000000 3.161303
v -9.717390 0.000000 3.161303
v 1.948997 0.000000 -2.961015
v 4.545918 0.000000 -2.961015
v 4.545918 0.116191 -2.961015
v 1.948997 0.116191 -2.961015
v 1.948997 0.000000 -2.979154
v 4.545918 0.000000 -2.979154
v 4.545918 0.000000 -2.961015
v 1.948997 0.000000 -2.961015
v 4.545918 0.116191 -2.979154
v 4.545918 0.000000 -2.979154
v 4.545918 0.000000 -2.997292
v 4.545918 0.080903 -2.997292
v 4.545918 0.125375 -2.979154
v 1.948997 0.125375 -2.979154
v 1.948997 0.116191 -2.979154
v 4.545918 0.116191 -2.979154
v 1.948997 0.116191 -2.979154
v 1.948997 0.000000 -2.979154
v 1.948997 0.000000 -2.961015
v 1.948997 0.116191 -2.961015
v 1.948997 0.000000 -2.997292
v 4.545918 0.000000 -2.997292
v 4.545918 0.116191 -2.961015
v 4.545918 0.000000 -2.961015
v 1.948997 0.116191 -2.961015
v 4.545918 0.116191 -2.961015
v 4.545918 0.116191 -2.979154
v 1.948997 0.116191 -2.979154
v 1.948997 0.080903 -2.997292
v 1.948997 0.000000 -2.997292
v 1.948997 0.125375 -2.979154
v 1.948997 0.125375 -2.997292
v 1.948997 0.125375 -2.979154
v 4.545918 0.125375 -2.979154
v 4.545918 0.125375 -2.997292
v 1.948997 0.125375 -2.997292
v 1.948997 0.125375 -2.997292
v 4.545918 0.125375 -2.997292
v 4.545918 0.080903 -2.997292
v 1.948997 0.080903 -2.997292
v 4.545918 0.125375 -2.997292
v 4.545918 0.125375 -2.979154
vn 0.000000 0.000000 1.000000
vn 0.000000 0.000000 1.000000
vn 0.000000 0.000000 1.000000
vn 0.000000 0.000000 1.000000
vn 1.000000 0.000000 0.000000
vn 1.000000 0.000000 0.000000
vn 1.000000 0.000000 0.000000
vn 1.000000 0.000000 0.000000
vn 0.000000 0.000000 -1.000000
vn 0.000000 0.000000 -1.000000
vn 0.000000 0.000000 -1.000000
vn 0.000000 0.000000 -1.000000
vn 0.000000 -1.000000 0.000000
vn 0.000000 -1.000000 0.000000
vn 0.000000 -1.000000 0.000000
vn 0.000000 -1.000000 0.000000
vn 0.000000 1.000000 0.000000
vn 0.000000 1.000000 0.000000
vn 0.000000 1.000000 0.000000
vn 0.000000 1.000000 0.000000
vn 0.000000 1.000000 0.000000
vn 0.000000 1.000000 0.000000
vn 0.000000 -1.000000 0.000000
vn 0.000000 -1.000000 0.000000
vn 0.000000 -1.000000 0.000000
vn 0.000000 -1.000000 0.000000
vn 0.000000 1.000000 0.000000
vn 0.000000 1.000000 0.000000
vn 0.000000 -1.000000 0.000000
vn 0.000000 -1.000000 0.000000
vn 0.000000 -1.000000 0.000000
vn 0.000000 -1.000000 0.000000
vn 0.000000 0.000000 -1.000000
vn 0.000000 0.000000 -1.000000
vn 0.000000 0.000000 -1.000000
vn 0.000000 0.000000 -1.000000
vn 0.000000 1.000000 0.000000
vn 0.000000 1.000000 0.000000
vn 0.000000 1.000000 0.000000
vn 0.000000 1.000000 0.000000
vn 0.000000 -1.000000 0.000000
vn 0.000000 -1.000000 0.000000
vn 0.000000 -1.000000 0.000000
vn 0.000000 -1.000000 0.000000
vn -1.000000 0.000000 0.000000
vn -1.000000 0.000000 0.000000
vn -1.000000 0.000000 0.000000
vn -1.000000 0.000000 0.000000
vn 0.000000 -1.000000 0.000000
vn 0.000000 -1.000000 0.000000
vn 0.000000 -1.000000 0.000000
vn 0.000000 -1.000000 0.000000
vn 0.000000 0.000000 -1.000000
vn 0.000000 0.000000 -1.000000
vn 0.000000 0.000000 -1.000000
vn 0.000000 0.000000 -1.000000
vn 0.000000 1.000000 0.000000
vn 0.000000 1.000000 0.000000
vn 0.000000 1.000000 0.000000
vn 0.000000 1.000000 0.000000
vn 0.000000 -1.000000 0.000000
vn 0.000000 -1.000000 0.000000
vn 0.000000 -1.000000 0.000000
vn 0.000000 -1.000000 0.000000
vn 0.000000 1.000000 0.000000
vn 0.000000 1.000000 0.000000
vn -1.000000 0.000000 0.000000
vn -1.000000 0.000000 0.000000
vn -1.000000 0.000000 0.000000
vn -1.000000 0.000000 0.000000
vn 0.000000 0.000000 -1.000000
vn 0.000000 0.000000 -1.000000
vn 0.000000 0.000000 -1.000000
vn 0.000000 0.000000 -1.000000
vn -1.000000 0.000000 0.000000
vn -1.000000 0.000000 0.000000
vn -1.000000 0.000000 0.000000
vn -1.000000 0.000000 0.000000
vn 0.000000 -1.000000 0.000000
vn 0.000000 -1.000000 0.000000
vn 0.000000 -1.000000 0.000000
vn 0.000000 -1.000000 0.000000
vn 1.000000 0.000000 0.000000
vn 1.000000 0.000000 0.000000
vn 1.000000 0.000000 0.000000
vn 1.000000 0.000000 0.000000
vn 0.000000 1.000000 0.000000
vn 0.000000 1.000000 0.000000
vn 0.000000 1.000000 0.000000
vn 0.000000 1.000000 0.000000
vn 1.000000 0.000000 0.000000
vn 1.000000 0.000000 0.000000
vn 1.000000 0.000000 0.000000
vn 1.000000 0.000000 0.000000
vn 0.000000 0.000000 -1.000000
vn 0.000000 0.000000 -1.000000
vn 0.000000 -1.000000 0.000000
vn 0.000000 -1.000000 0.000000
vn 0.000000 1.000000 0.000000
vn 0.000000 1.000000 0.000000
vn -1.000000 0.000000 0.000000
vn -1.000000 0.000000 0.000000
vn 0.000000 1.000000 0.000000
vn 0.000000 1.000000 0.000000
vn 0.000000 0.000000 1.000000
vn 0.000000 0.000000 1.000000
vn 0.000000 0.000000 1.000000
vn 0.000000 0.000000 1.000000
vn 0.000000 -1.000000 0.000000
vn 0.000000 -1.000000 0.000000
vn 0.000000 -1.000000 0.000000
vn 0.000000 -1.000000 0.000000
vn 1.000000 0.000000 0.000000
vn 1.000000 0.000000 0.000000
vn 1.000000 0.000000 0.000000
vn 1.000000 0.000000 0.000000
vn 0.000000 0.000000 -1.000000
vn 0.000000 0.000000 -1.000000
vn 0.000000 -1.000000 0.000000
vn 0.000000 -1.000000 0.000000
vn 0.000000 -1.000000 0.000000
vn 0.000000 -1.000000 0.000000
vn 0.000000 -1.000000 0.000000
vn 0.000000 -1.000000 0.000000
vn 0.000000 0.000000 1.000000
vn 0.000000 0.000000 1.000000
vn 0.000000 0.000000 1.000000
vn 0.000000 0.000000 1.000000
vn 0.000000 1.000000 0.000000
vn 0.000000 1.000000 0.000000
vn 0.000000 1.000000 0.000000
vn 0.000000 1.000000 0.000000
vn -1.000000 0.000000 0.000000
vn -1.000000 0.000000 0.000000
vn -1.000000 0.000000 0.000000
vn -1.000000 0.000000 0.000000
vn 1.000000 0.000000 0.000000
vn 1.000000 0.000000 0.000000
vn 1.000000 0.000000 0.000000
vn 1.000000 0.000000 0.000000
vn 1.000000 0.000000 0.000000
vn 1.000000 0.000000 0.000000
vn 1.000000 0.000000 0.000000
vn 1.000000 0.000000 0.000000
vn 0.000000 0.000000 -1.000000
vn 0.000000 0.000000 -1.000000
vn 0.000000 1.000000 0.000000
vn 0.000000 1.000000 0.000000
vn 0.000000 1.000000 0.000000
vn 0.000000 1.000000 0.000000
vn 0.000000 0.000000 1.000000
vn 0.000000 0.000000 1.000000
vn 0.000000 0.000000 1.000000
vn 0.000000 0.000000 1.000000
vn 1.000000 0.000000 0.000000
vn 1.000000 0.000000 0.000000
vn 1.000000 0.000000 0.000000
vn 1.000000 0.000000 0.000000
vn 0.000000 -1.000000 0.000000
vn 0.000000 -1.000000 0.000000
vn 0.000000 -1.000000 0.000000
vn 0.000000 -1.000000 0.000000
vn 0.000000 0.000000 1.000000
vn 0.000000 0.000000 1.000000
vn 0.000000 0.000000 1.000000
vn 0.000000 0.000000 1.000000
vn 0.000000 -1.000000 0.000000
vn 0.000000 -1.000000 0.000000
vn 0.000000 -1.000000 0.000000
vn 0.000000 -1.000000 0.000000
vn 1.000000 0.000000 0.000000
vn 1.000000 0.000000 0.000000
vn 1.000000 0.000000 0.000000
vn 1.000000 0.000000 0.000000
vn 0.000000 0.000000 1.000000
vn 0.000000 0.000000 1.000000
vn 0.000000 0.000000 1.000000
vn 0.000000 0.000000 1.000000
vn -1.000000 0.000000 0.000000
vn -1.000000 0.000000 0.000000
vn -1.000000 0.000000 0.000000
vn -1.000000 0.000000 0.000000
vn 0.000000 -1.000000 0.000000
vn 0.000000 -1.000000 0.000000
vn 1.000000 0.000000 0.000000
vn 1.000000 0.000000 0.000000
vn 0.000000 1.000000 0.000000
vn 0.000000 1.000000 0.000000
vn 0.000000 1.000000 0.000000
vn 0.000000 1.000000 0.000000
vn -1.000000 0.000000 0.000000
vn -1.000000 0.000000 0.000000
vn -1.000000 0.000000 0.000000
vn -1.000000 0.000000 0.000000
vn 0.000000 1.000000 0.000000
vn 0.000000 1.000000 0.000000
vn 0.000000 1.000000 0.000000
vn 0.000000 1.000000 0.000000
vn 0.000000 0.000000 -1.000000
vn 0.000000 0.000000 -1.000000
vn 0.000000 0.000000 -1.000000
vn 0.000000 0.000000 -1.000000
vn 1.000000 0.000000 0.000000
vn 1.000000 0.000000 0.000000
vt 0.723500 1.067400
vt 0.723500 1.294900
vt 0.691100 1.294900
vt 0.691100 1.067400
vt 0.691100 0.348200
vt 0.723500 0.348200
vt 0.723500 0.717400
vt 0.691100 0.717400
vt 0.723500 0.294900
vt 0.723500 0.067400
vt 0.691100 0.067400
vt 0.691100 0.294900
vt 0.655500 0.295200
vt 0.655500 0.084600
vt 0.644600 0.067400
vt 0.644600 0.294900
vt 0.939900 1.067400
vt 0.939900 1.294900
vt 0.929000 1.295200
vt 0.929000 1.084600
vt 0.644600 1.067400
vt 0.655500 1.084600
vt 0.939900 0.294900
vt 0.939900 0.067400
vt 0.929000 0.084600
vt 0.929000 0.295200
vt 0.655500 1.295200
vt 0.644600 1.294900
vt 0.655500 1.084600
vt 0.929000 1.084600
vt 0.939900 1.067400
vt 0.644600 1.067400
vt 0.691100 0.682600
vt 0.691100 1.457300
vt 0.723500 1.457300
vt 0.723500 0.682600
vt 0.308300 0.682600
vt 0.308300 1.457300
vt 0.291900 1.457300
vt 0.291900 0.682600
vt 0.291900 -0.317400
vt 0.291900 0.457300
vt 0.308300 0.457300
vt 0.308300 -0.317400
vt 0.723500 1.137700
vt 0.691100 1.137700
vt 0.691100 1.158300
vt 0.723500 1.158300
vt 0.291900 0.682600
vt 0.308300 0.682600
vt 0.308300 0.668800
vt 0.291900 0.668800
vt 0.691100 0.638700
vt 0.723500 0.638700
vt 0.723500 0.249600
vt 0.691100 0.249600
vt 0.302400 0.249600
vt 0.291900 0.249600
vt 0.291900 0.238700
vt 0.302400 0.238700
vt 0.291900 0.249600
vt 0.291900 0.638700
vt 0.302400 0.638700
vt 0.302400 0.249600
vt 0.302400 0.638700
vt 0.291900 0.638700
vt 0.723500 1.145200
vt 0.691100 1.145200
vt 0.691100 1.158300
vt 0.723500 1.158300
vt 0.691100 0.401700
vt 0.723500 0.401700
vt 0.723500 -0.822400
vt 0.691100 -0.822400
vt 0.723500 1.140100
vt 0.691100 1.140100
vt 0.691100 1.158300
vt 0.723500 1.158300
vt 0.306400 0.401700
vt 0.306400 -0.822400
vt 0.291900 -0.822400
vt 0.291900 0.401700
vt 0.723500 1.158300
vt 0.691100 1.158300
vt 0.691100 1.140100
vt 0.723500 1.140100
vt 0.291900 0.401700
vt 0.291900 -0.822400
vt 0.306400 -0.822400
vt 0.306400 0.401700
vt 0.691100 1.158300
vt 0.723500 1.158300
vt 0.723500 1.181900
vt 0.691100 1.181900
vt 0.691100 0.419200
vt 0.723500 0.419200
vt 0.306400 0.419200
vt 0.291900 0.419200
vt 0.291900 0.419200
vt 0.306400 0.419200
vt 0.691100 1.181900
vt 0.723500 1.181900
vt 0.273000 0.419200
vt 0.273000 0.401700
vt 0.691100 0.419200
vt 0.691100 0.401700
vt 0.723500 0.401700
vt 0.723500 0.419200
vt 1.073000 0.401700
vt 1.073000 0.419200
vt 1.091900 0.419200
vt 1.091900 0.401700
vt 0.723500 1.158300
vt 0.691100 1.158300
vt 0.691100 1.145200
vt 0.723500 1.145200
vt 0.723500 0.238700
vt 0.691100 0.238700
vt 0.302400 0.238700
vt 0.291900 0.238700
vt 1.001500 0.238700
vt 1.001500 0.249600
vt 1.091900 0.249600
vt 1.091900 0.238700
vt 0.723500 0.249600
vt 0.691100 0.249600
vt 0.691100 0.238700
vt 0.723500 0.238700
vt 1.001500 0.249600
vt 1.001500 0.238700
vt 1.091900 0.238700
vt 1.091900 0.249600
vt 0.723500 1.158300
vt 0.691100 1.158300
vt 0.691100 1.271300
vt 0.723500 1.271300
vt 0.723500 0.271300
vt 0.691100 0.271300
vt 0.691100 0.158300
vt 0.723500 0.158300
vt 0.723500 1.158300
vt 0.691100 1.158300
vt 0.691100 1.137700
vt 0.723500 1.137700
vt 0.723500 0.668800
vt 0.691100 0.668800
vt 0.291900 0.668800
vt 0.226600 0.682600
vt 0.226600 0.668800
vt 0.308300 0.668800
vt 0.723500 0.682600
vt 0.691100 0.682600
vt 0.691100 0.668800
vt 0.723500 0.668800
vt 0.723500 0.239900
vt 0.691100 0.239900
vt 0.691100 0.158300
vt 0.723500 0.158300
vt 1.091900 0.682600
vt 1.091900 0.668800
vt 1.026600 0.668800
vt 1.026600 0.682600
vt 0.588300 0.776800
vt 0.588300 -0.115000
vt 0.607000 -0.115000
vt 0.607000 0.776800
vt 1.082800 0.742700
vt 1.082800 -0.802100
vt 1.075600 -0.802100
vt 1.075600 0.742700
vt 0.723500 0.169600
vt 0.691100 0.169600
vt 0.691100 0.160600
vt 0.723500 0.160600
vt 0.727200 0.197900
vt 0.727200 1.742700
vt 0.723500 1.742700
vt 0.723500 0.197900
vt 0.723500 0.169600
vt 0.691100 0.169600
vt 0.691100 0.178700
vt 0.723500 0.178700
vt 1.090100 0.742700
vt 1.090100 -0.802100
vt 0.723500 0.178700
vt 0.691100 0.178700
vt 1.075600 0.742700
vt 1.075600 -0.802100
vt 1.082800 -0.802100
vt 1.082800 0.742700
vt 0.723500 0.160600
vt 0.691100 0.160600
vt 0.727200 0.169600
vt 0.727200 0.160600
vt 1.082800 0.742700
vt 1.082800 -0.802100
vt 1.090100 -0.802100
vt 1.090100 0.742700
vt 0.727200 0.742700
vt 0.727200 -0.802100
vt 0.723500 -0.802100
vt 0.723500 0.742700
vt 0.727200 0.160600
vt 0.727200 0.169600
f 1/1/1 2/2/2 3/3/3
f 1/1/1 3/3/3 4/4/4
f 5/5/5 6/6/6 7/7/7
f 5/5/5 7/7/7 8/8/8
f 9/9/9 10/10/10 11/11/11
f 9/9/9 11/11/11 12/12/12
f 13/13/13 14/14/14 15/15/15
f 13/13/13 15/15/15 16/16/16
f 17/17/17 18/18/18 19/19/19
f 17/17/17 19/19/19 20/20/20
f 21/21/21 17/17/17 20/20/20
f 21/21/21 20/20/20 22/22/22
f 23/23/23 24/24/24 25/25/25
f 23/23/23 25/25/25 26/26/26
f 22/22/22 27/27/27 28/28/28
f 22/22/22 28/28/28 21/21/21
f 29/29/29 30/30/30 31/31/31
f 29/29/29 31/31/31 32/32/32
f 33/33/33 34/34/34 35/35/35
f 33/33/33 35/35/35 36/36/36
f 37/37/37 38/38/38 39/39/39
f 37/37/37 39/39/39 40/40/40
f 41/41/41 42/42/42 43/43/43
f 41/41/41 43/43/43 44/44/44
f 45/45/45 46/46/46 47/47/47
f 45/45/45 47/47/47 48/48/48
f 49/49/49 50/50/50 51/51/51
f 49/49/49 51/51/51 52/52/52
f 53/53/53 54/54/54 55/55/55
f 53/53/53 55/55/55 56/56/56
f 57/57/57 58/58/58 59/59/59
f 57/57/57 59/59/59 60/60/60
f 61/61/61 62/62/62 63/63/63
f 61/61/61 63/63/63 64/64/64
f 57/57/57 65/65/65 66/66/66
f 57/57/57 66/66/66 58/58/58
f 67/67/67 68/68/68 69/69/69
f 67/67/67 69/69/69 70/70/70
f 71/71/71 72/72/72 73/73/73
f 71/71/71 73/73/73 74/74/74
f 75/75/75 76/76/76 77/77/77
f 75/75/75 77/77/77 78/78/78
f 79/79/79 80/80/80 81/81/81
f 79/79/79 81/81/81 82/82/82
f 83/83/83 84/84/84 85/85/85
f 83/83/83 85/85/85 86/86/86
f 87/87/87 88/88/88 89/89/89
f 87/87/87 89/89/89 90/90/90
f 91/91/91 92/92/92 93/93/93
f 91/91/91 93/93/93 94/94/94
f 95/95/95 96/96/96 72/72/72
f 95/95/95 72/72/72 71/71/71
f 97/97/97 79/79/79 82/82/82
f 97/97/97 82/82/82 98/98/98
f 99/99/99 87/87/87 90/90/90
f 99/99/99 90/90/90 100/100/100
f 78/78/78 77/77/77 101/101/101
f 78/78/78 101/101/101 102/102/102
f 87/87/87 99/99/99 103/103/103
f 87/87/87 103/103/103 104/104/104
f 105/105/105 106/106/106 107/107/107
f 105/105/105 107/107/107 108/108/108
f 109/109/109 110/110/110 111/111/111
f 109/109/109 111/111/111 112/112/112
f 113/113/113 114/114/114 115/115/115
f 113/113/113 115/115/115 116/116/116
f 117/117/117 118/118/118 56/56/56
f 117/117/117 56/56/56 55/55/55
f 61/61/61 64/64/64 119/119/119
f 61/61/61 119/119/119 120/120/120
f 121/121/121 122/122/122 123/123/123
f 121/121/121 123/123/123 124/124/124
f 125/125/125 126/126/126 127/127/127
f 125/125/125 127/127/127 128/128/128
f 129/129/129 130/130/130 131/131/131
f 129/129/129 131/131/131 132/132/132
f 133/133/133 134/134/134 135/135/135
f 133/133/133 135/135/135 136/136/136
f 137/137/137 138/138/138 139/139/139
f 137/137/137 139/139/139 140/140/140
f 141/141/141 142/142/142 143/143/143
f 141/141/141 143/143/143 144/144/144
f 145/145/145 146/146/146 33/33/33
f 145/145/145 33/33/33 36/36/36
f 147/147/147 40/40/40 148/148/148
f 147/147/147 148/148/148 149/149/149
f 147/147/147 150/150/150 37/37/37
f 147/147/147 37/37/37 40/40/40
f 151/151/151 152/152/152 153/153/153
f 151/151/151 153/153/153 154/154/154
f 155/155/155 156/156/156 157/157/157
f 155/155/155 157/157/157 158/158/158
f 159/159/159 160/160/160 161/161/161
f 159/159/159 161/161/161 162/162/162
f 163/163/163 164/164/164 165/165/165
f 163/163/163 165/165/165 166/166/166
f 167/167/167 168/168/168 169/169/169
f 167/167/167 169/169/169 170/170/170
f 171/171/171 172/172/172 173/173/173
f 171/171/171 173/173/173 174/174/174
f 175/175/175 176/176/176 177/177/177
f 175/175/175 177/177/177 178/178/178
f 179/179/179 180/180/180 181/181/181
f 179/179/179 181/181/181 182/182/182
f 183/183/183 184/184/184 168/168/168
f 183/183/183 168/168/168 167/167/167
f 185/185/185 186/186/186 172/172/172
f 185/185/185 172/172/172 171/171/171
f 187/187/187 188/188/188 189/189/189
f 187/187/187 189/189/189 190/190/190
f 191/191/191 192/192/192 180/180/180
f 191/191/191 180/180/180 179/179/179
f 193/193/193 194/194/194 191/191/191
f 193/193/193 191/191/191 179/179/179
f 195/195/195 196/196/196 197/197/197
f 195/195/195 197/197/197 198/198/198
f 199/199/199 200/200/200 201/201/201
f 199/199/199 201/201/201 202/202/202
f 171/171/171 174/174/174 203/203/203
f 171/171/171 203/203/203 204/204/204
